<?xml version="1.0" standalone="no"?>
<!DOCTYPE svg PUBLIC "-//W3C//DTD SVG 20010904//EN"
 "http://www.w3.org/TR/2001/REC-SVG-20010904/DTD/svg10.dtd">
<svg version="1.0" xmlns="http://www.w3.org/2000/svg"
 width="1500.000000pt" height="1500.000000pt" viewBox="0 0 1500.000000 1500.000000"
 preserveAspectRatio="xMidYMid meet">
<metadata>
Created by potrace 1.16, written by Peter Selinger 2001-2019
</metadata>
<g transform="translate(0.000000,1500.000000) scale(0.100000,-0.100000)"
fill="#000000" stroke="none">
<path d="M7105 14994 c-22 -2 -103 -9 -180 -14 -1223 -95 -2460 -520 -3500
-1204 -825 -543 -1524 -1230 -2077 -2041 -650 -954 -1073 -2045 -1237 -3190
-52 -360 -71 -645 -71 -1065 0 -420 19 -705 71 -1065 327 -2282 1669 -4282
3649 -5439 187 -109 552 -296 745 -381 637 -281 1330 -478 2012 -570 183 -25
185 -25 1013 -25 828 0 830 0 1013 25 1324 179 2611 731 3653 1565 588 471
1096 1019 1516 1635 705 1035 1143 2232 1273 3477 22 213 22 1343 0 1556 -249
2391 -1618 4519 -3685 5726 -747 436 -1583 745 -2439 901 -461 83 -725 106
-1266 110 -247 1 -468 1 -490 -1z m-1096 -2838 c397 -81 731 -264 1114 -611
l77 -70 0 -3813 0 -3814 -60 54 c-240 212 -414 336 -605 431 -154 77 -249 113
-389 148 -163 39 -262 51 -451 51 -506 -1 -1000 -149 -2354 -710 -462 -191
-597 -243 -610 -235 -15 9 -16 327 -19 4133 -1 3040 1 4126 9 4136 9 11 60 14
243 14 414 0 675 30 1271 144 492 94 823 149 1000 165 55 5 222 8 370 7 247
-3 281 -5 404 -30z m3791 10 c210 -26 522 -74 790 -122 745 -133 1025 -164
1472 -164 195 0 208 -1 218 -19 7 -14 10 -1318 10 -4138 0 -3482 -2 -4122 -14
-4138 -13 -18 -15 -18 -72 7 -87 39 -1043 424 -1154 465 -287 106 -408 149
-525 190 -713 246 -1172 328 -1593 282 -403 -43 -780 -235 -1129 -573 l-113
-109 0 3821 0 3820 107 101 c308 293 632 472 1006 555 64 15 156 30 204 35
132 14 645 5 793 -13z m-7556 -302 c15 -6 16 -389 16 -4245 l0 -4239 5240 0
5240 0 0 4239 c0 3856 1 4239 16 4245 9 3 47 6 84 6 128 0 241 -66 298 -174
l27 -51 3 -4234 c1 -2742 -1 -4246 -8 -4270 -24 -91 -108 -177 -208 -213 -43
-15 -207 -17 -2085 -17 l-2037 -1 7 -27 c5 -16 8 -57 7 -93 -1 -113 -69 -215
-177 -266 l-52 -24 -1115 0 -1115 0 -60 28 c-65 31 -112 77 -147 145 -17 32
-22 60 -23 117 0 41 4 85 8 98 l8 22 -2040 0 c-2027 0 -2041 0 -2095 20 -65
25 -137 86 -174 148 l-27 47 -3 4253 c-2 4173 -2 4255 17 4297 36 81 125 159
211 186 31 9 162 11 184 3z"/>
<path d="M4030 8400 l0 -2340 260 0 260 0 2 923 3 922 355 6 c373 6 414 10
570 60 71 24 187 78 234 112 64 45 161 145 206 214 90 136 150 319 171 521 7
70 9 269 6 572 -4 502 -7 533 -68 718 -51 156 -167 337 -273 425 -56 46 -173
110 -252 137 -176 61 -294 70 -935 70 l-539 0 0 -2340z m1230 1836 c202 -66
298 -224 320 -525 12 -170 12 -635 0 -801 -19 -258 -95 -398 -258 -475 -101
-48 -161 -55 -479 -55 l-293 0 0 941 0 941 328 -4 c279 -4 335 -7 382 -22z"/>
<path d="M5369 7760 c-145 -26 -246 -121 -283 -266 -14 -53 -16 -143 -16 -601
0 -492 2 -544 18 -605 22 -79 69 -156 119 -194 140 -106 408 -92 519 28 85 91
108 172 108 383 l1 160 -90 0 -90 0 -5 -170 c-6 -186 -12 -210 -70 -258 -36
-31 -81 -41 -154 -35 -65 5 -108 34 -139 91 -22 42 -22 42 -22 602 l0 560 25
45 c60 108 249 122 317 24 33 -49 37 -65 42 -204 l6 -135 94 -3 94 -3 -6 138
c-6 153 -19 210 -69 293 -39 65 -101 114 -168 134 -64 19 -173 27 -231 16z"/>
<path d="M4690 6895 l0 -855 100 0 100 0 0 855 0 855 -100 0 -100 0 0 -855z"/>
<path d="M6010 6895 l0 -855 95 0 95 0 0 287 0 286 46 79 c25 43 49 76 52 74
4 -2 88 -167 187 -365 l179 -361 99 0 c54 0 96 3 94 8 -27 48 -437 913 -437
921 0 7 92 178 205 381 113 203 208 376 211 385 6 14 -6 15 -90 13 l-97 -3
-222 -403 -222 -403 -3 406 -2 405 -95 0 -95 0 0 -855z"/>
<path d="M7770 8399 l0 -2341 623 5 c540 3 635 6 717 22 256 47 432 140 572
302 23 27 44 48 47 47 3 0 31 -12 61 -27 44 -22 69 -27 129 -27 40 0 91 5 113
12 56 16 121 78 149 140 24 53 24 57 27 441 3 429 -1 469 -58 552 -35 51 -108
90 -186 100 l-51 6 -12 110 c-45 415 -222 676 -531 786 l-77 27 77 32 c240 98
368 265 432 564 25 119 37 578 19 748 -29 275 -105 459 -251 603 -93 93 -212
156 -365 195 -150 37 -278 44 -882 44 l-553 0 0 -2341z m1170 1850 c140 -22
247 -98 301 -212 58 -126 62 -156 67 -482 4 -349 -6 -438 -64 -555 -55 -110
-138 -170 -292 -212 -68 -19 -113 -22 -369 -26 l-293 -4 0 751 0 751 293 0
c160 0 321 -5 357 -11z m62 -1997 c206 -56 316 -170 365 -379 16 -69 18 -127
18 -483 0 -397 0 -406 -23 -480 -49 -156 -122 -252 -235 -309 -106 -54 -166
-61 -519 -61 l-318 0 0 871 0 871 318 -4 c282 -4 325 -7 394 -26z m992 -767
c18 -9 41 -30 51 -48 19 -30 20 -55 23 -409 3 -408 0 -442 -47 -488 -51 -52
-161 -46 -203 11 -19 25 -19 26 2 74 32 75 67 220 79 328 6 53 11 198 11 322
l0 225 26 0 c14 0 40 -7 58 -15z"/>
<path d="M10531 7620 c-110 -23 -179 -103 -201 -231 -8 -43 -10 -191 -8 -430
3 -352 4 -366 26 -421 27 -67 90 -128 150 -146 22 -7 73 -12 113 -12 126 0
214 59 256 169 14 40 17 97 21 410 4 380 -2 461 -38 530 -24 47 -76 96 -120
115 -47 19 -144 27 -199 16z m139 -138 c19 -9 43 -33 55 -52 19 -34 20 -51 20
-430 0 -359 -2 -398 -18 -427 -26 -48 -61 -67 -122 -67 -61 0 -96 19 -122 67
-16 29 -18 71 -21 407 -2 262 0 388 9 417 11 40 48 85 79 96 31 11 86 6 120
-11z"/>
<path d="M11910 7620 c-132 -28 -214 -179 -190 -353 14 -97 52 -159 165 -261
212 -194 234 -225 235 -328 0 -115 -44 -172 -136 -172 -95 0 -135 46 -142 165
l-5 79 -63 0 -64 0 0 -60 c0 -141 47 -236 139 -282 104 -53 269 -31 338 43 49
54 68 117 68 229 0 101 -1 108 -34 168 -25 45 -60 86 -120 140 -219 198 -245
234 -245 342 0 112 46 170 134 170 84 0 127 -51 137 -161 l6 -59 65 0 65 0 -6
74 c-9 124 -63 214 -147 250 -48 19 -144 27 -200 16z"/>
<path d="M11010 7000 l0 -610 70 0 70 0 0 201 0 200 33 60 c17 32 34 59 37 59
3 0 64 -117 135 -260 l130 -260 67 0 c38 0 68 3 68 6 0 4 -70 153 -156 331
-129 270 -154 329 -146 347 5 11 73 135 151 275 77 139 141 255 141 257 0 2
-31 4 -69 4 l-68 0 -159 -289 -159 -290 -3 290 -2 289 -70 0 -70 0 0 -610z"/>
</g>
</svg>
